<?xml version="1.0" encoding="iso-8859-1"?>
<!-- Generator: Adobe Illustrator 16.0.0, SVG Export Plug-In . SVG Version: 6.00 Build 0)  -->
<!DOCTYPE svg PUBLIC "-//W3C//DTD SVG 1.1//EN" "http://www.w3.org/Graphics/SVG/1.1/DTD/svg11.dtd">
<svg version="1.1" id="Capa_1" xmlns="http://www.w3.org/2000/svg" xmlns:xlink="http://www.w3.org/1999/xlink" x="0px" y="0px"
	 width="512px" height="512px" viewBox="0 0 512 512" style="enable-background:new 0 0 512 512;" xml:space="preserve">
<g>
	<path d="M512,496c0,8.844-7.156,16-16,16H16c-8.844,0-16-7.156-16-16V16C0,7.156,7.156,0,16,0s16,7.156,16,16v80h16
		c8.844,0,16,7.156,16,16s-7.156,16-16,16H32v64h16c8.844,0,16,7.156,16,16s-7.156,16-16,16H32v64h16c8.844,0,16,7.156,16,16
		s-7.156,16-16,16H32v64h16c8.844,0,16,7.156,16,16s-7.156,16-16,16H32v64h464C504.844,480,512,487.156,512,496z M128,448
		c17.672,0,32-14.312,32-32v-96c0-17.688-14.328-32-32-32s-32,14.312-32,32v96C96,433.688,110.328,448,128,448z M224,448
		c17.672,0,32-14.312,32-32V224c0-17.688-14.328-32-32-32s-32,14.313-32,32v192C192,433.688,206.328,448,224,448z M320,448
		c17.688,0,32-14.312,32-32V160c0-17.688-14.312-32-32-32s-32,14.313-32,32v256C288,433.688,302.312,448,320,448z M416,448
		c17.688,0,32-14.312,32-32V96c0-17.688-14.312-32-32-32s-32,14.313-32,32v320C384,433.688,398.312,448,416,448z"/>
</g>
<g>
</g>
<g>
</g>
<g>
</g>
<g>
</g>
<g>
</g>
<g>
</g>
<g>
</g>
<g>
</g>
<g>
</g>
<g>
</g>
<g>
</g>
<g>
</g>
<g>
</g>
<g>
</g>
<g>
</g>
</svg>
