<?xml version="1.0" encoding="iso-8859-1"?>
<!-- Generator: Adobe Illustrator 18.1.1, SVG Export Plug-In . SVG Version: 6.00 Build 0)  -->
<svg version="1.1" id="Capa_1" xmlns="http://www.w3.org/2000/svg" xmlns:xlink="http://www.w3.org/1999/xlink" x="0px" y="0px"
	 viewBox="0 0 327.339 327.339" style="enable-background:new 0 0 327.339 327.339;" xml:space="preserve">
<g>
	<path style="fill:#010002;" d="M197.234,47.994h-67.537c0,95.635-11.786,124.19-24.024,140.687
		c-12.238,16.491,4.531,27.924,4.531,27.924c25.373,15.708,41.429,71.453,44.698,83.691c-3.726,2.763-6.168,7.152-6.168,12.145
		c0,7.419,5.336,13.565,12.368,14.876l-0.076-24.595l-0.016-5.151l-0.261-85.66l-14.191-14.191h33.82l-14.185,14.185l0.261,85.638
		l0.016,5.183l0.076,24.612c7.103-1.256,12.51-7.43,12.51-14.892c0-5.319-2.752-9.981-6.897-12.684
		c9.159-36.447,32.248-69.446,45.927-82.244c14.049-13.146,5.439-24.356,5.439-24.356
		C194.965,147.045,197.234,47.994,197.234,47.994z"/>
	<path style="fill:#010002;" d="M124.35,0v12.689h-8.039c-7.636,0-13.826,6.19-13.826,13.826s6.19,13.826,13.826,13.826h95.124
		c7.636,0,13.826-6.19,13.826-13.826s-6.19-13.826-13.826-13.826H199.48V0H124.35z"/>
</g>
<g>
</g>
<g>
</g>
<g>
</g>
<g>
</g>
<g>
</g>
<g>
</g>
<g>
</g>
<g>
</g>
<g>
</g>
<g>
</g>
<g>
</g>
<g>
</g>
<g>
</g>
<g>
</g>
<g>
</g>
</svg>
