<?xml version="1.0" encoding="iso-8859-1"?>
<!-- Generator: Adobe Illustrator 16.0.0, SVG Export Plug-In . SVG Version: 6.00 Build 0)  -->
<!DOCTYPE svg PUBLIC "-//W3C//DTD SVG 1.1//EN" "http://www.w3.org/Graphics/SVG/1.1/DTD/svg11.dtd">
<svg version="1.1" id="Capa_1" xmlns="http://www.w3.org/2000/svg" xmlns:xlink="http://www.w3.org/1999/xlink" x="0px" y="0px"
	 width="512px" height="512px" viewBox="0 0 512 512" style="enable-background:new 0 0 512 512;" xml:space="preserve">
<g>
	<path d="M308.375,0L512,203.656l-67.875,22.625L285.75,67.89L308.375,0z M407.312,263.062l-90.5-90.5l-67.875-67.875
		L90.516,172.562L0,444.094l22.625,22.625l148.672-148.656c-14.422-24.562-11.328-56.562,9.719-77.625
		c25-24.984,65.547-24.984,90.546,0c25,25,25,65.531,0,90.5c-21.062,21.063-53.078,24.188-77.641,9.75L45.266,489.375L67.891,512
		l271.546-90.531L407.312,263.062z"/>
</g>
<g>
</g>
<g>
</g>
<g>
</g>
<g>
</g>
<g>
</g>
<g>
</g>
<g>
</g>
<g>
</g>
<g>
</g>
<g>
</g>
<g>
</g>
<g>
</g>
<g>
</g>
<g>
</g>
<g>
</g>
</svg>
