<?xml version="1.0" encoding="iso-8859-1"?>
<!-- Generator: Adobe Illustrator 16.0.0, SVG Export Plug-In . SVG Version: 6.00 Build 0)  -->
<!DOCTYPE svg PUBLIC "-//W3C//DTD SVG 1.1//EN" "http://www.w3.org/Graphics/SVG/1.1/DTD/svg11.dtd">
<svg version="1.1" id="Capa_1" xmlns="http://www.w3.org/2000/svg" xmlns:xlink="http://www.w3.org/1999/xlink" x="0px" y="0px"
	 width="485.213px" height="485.212px" viewBox="0 0 485.213 485.212" style="enable-background:new 0 0 485.213 485.212;"
	 xml:space="preserve">
<g>
	<path d="M394.235,303.257c-90.98,60.648-90.98,181.955-90.98,181.955h-30.322V306.604c9.241-8.322,15.164-20.256,15.164-33.674
		c0-25.108-20.377-45.485-45.49-45.485c-25.114,0-45.49,20.376-45.49,45.485c0,13.418,5.923,25.352,15.166,33.674v178.608h-30.327
		c0,0,0-121.307-90.978-181.955c59.704-90.028,60.651-212.28,60.651-212.28h181.958C333.586,90.978,335.481,213.229,394.235,303.257
		z M333.586,0H151.628v60.651h181.958V0z"/>
</g>
<g>
</g>
<g>
</g>
<g>
</g>
<g>
</g>
<g>
</g>
<g>
</g>
<g>
</g>
<g>
</g>
<g>
</g>
<g>
</g>
<g>
</g>
<g>
</g>
<g>
</g>
<g>
</g>
<g>
</g>
</svg>
