<?xml version="1.0" encoding="iso-8859-1"?>
<!-- Generator: Adobe Illustrator 16.0.0, SVG Export Plug-In . SVG Version: 6.00 Build 0)  -->
<!DOCTYPE svg PUBLIC "-//W3C//DTD SVG 1.1//EN" "http://www.w3.org/Graphics/SVG/1.1/DTD/svg11.dtd">
<svg version="1.1" id="Capa_1" xmlns="http://www.w3.org/2000/svg" xmlns:xlink="http://www.w3.org/1999/xlink" x="0px" y="0px"
	 width="485.213px" height="485.212px" viewBox="0 0 485.213 485.212" style="enable-background:new 0 0 485.213 485.212;"
	 xml:space="preserve">
<g>
	<path d="M272.934,239.911c35.181-34.707,61.597-46.583,123.436-32.189c7.052-6.52,13.684-12.797,19.251-18.365
		C485.986,119.024,477.692,45.415,485.212,0C439.787,7.551,282.23,1.08,211.926,71.418
		c-62.13,62.146-121.54,225.678-136.108,292.488L0.001,485.212h45.49l60.649-106.139c53.604-13.982,171.41-69.534,246.224-132.559
		C339.268,238.52,289.282,233.694,272.934,239.911z M118.372,334.471c27.689-41.285,116.656-212.22,290.972-290.239
		C389.261,66.795,162.942,275.717,118.372,334.471c-4.235,6.276-6.543,9.949-6.543,9.949
		C113.014,341.938,115.292,338.564,118.372,334.471z"/>
</g>
<g>
</g>
<g>
</g>
<g>
</g>
<g>
</g>
<g>
</g>
<g>
</g>
<g>
</g>
<g>
</g>
<g>
</g>
<g>
</g>
<g>
</g>
<g>
</g>
<g>
</g>
<g>
</g>
<g>
</g>
</svg>
