<?xml version="1.0" encoding="iso-8859-1"?>
<!-- Generator: Adobe Illustrator 18.0.0, SVG Export Plug-In . SVG Version: 6.00 Build 0)  -->
<!DOCTYPE svg PUBLIC "-//W3C//DTD SVG 1.1//EN" "http://www.w3.org/Graphics/SVG/1.1/DTD/svg11.dtd">
<svg version="1.1" id="Capa_1" xmlns="http://www.w3.org/2000/svg" xmlns:xlink="http://www.w3.org/1999/xlink" x="0px" y="0px"
	 viewBox="0 0 452.66 452.66" style="enable-background:new 0 0 452.66 452.66;" xml:space="preserve">
<g>
	<path d="M53.131,132.428c0.236,0,0.476-0.017,0.717-0.052l83.322-11.965c6.473-0.935,13.1-1.408,19.697-1.408
		c12.458,0,24.858,1.682,36.857,5c2.659,0.735,5.416-0.825,6.152-3.487c0.736-2.662-0.825-5.416-3.487-6.152
		c-12.867-3.558-26.164-5.361-39.522-5.361c-7.074,0-14.181,0.508-21.122,1.51l-83.318,11.964c-2.733,0.393-4.631,2.927-4.238,5.66
		C48.546,130.63,50.684,132.428,53.131,132.428z"/>
	<path d="M258.936,124.003c18.515-5.119,37.542-6.327,56.558-3.591l83.318,11.964c0.241,0.035,0.48,0.052,0.717,0.052
		c2.447,0,4.586-1.798,4.943-4.29c0.393-2.733-1.505-5.267-4.238-5.66l-83.317-11.964c-20.387-2.934-40.794-1.638-60.645,3.851
		c-2.662,0.736-4.223,3.49-3.487,6.152C253.521,123.179,256.277,124.739,258.936,124.003z"/>
	<path d="M53.131,166.791c0.236,0,0.476-0.017,0.717-0.052l83.322-11.965c6.473-0.935,13.1-1.408,19.697-1.408
		c12.458,0,24.858,1.682,36.857,5c2.659,0.736,5.416-0.825,6.152-3.487c0.736-2.662-0.825-5.416-3.487-6.152
		c-12.867-3.558-26.164-5.361-39.522-5.361c-7.074,0-14.181,0.508-21.122,1.51l-83.318,11.964c-2.733,0.393-4.631,2.927-4.238,5.66
		C48.546,164.993,50.684,166.791,53.131,166.791z"/>
	<path d="M258.936,158.366c18.515-5.119,37.544-6.326,56.558-3.591l83.318,11.964c0.241,0.035,0.48,0.052,0.717,0.052
		c2.447,0,4.586-1.798,4.943-4.29c0.393-2.733-1.505-5.267-4.238-5.66l-83.317-11.964c-20.387-2.934-40.792-1.639-60.645,3.851
		c-2.662,0.736-4.223,3.49-3.487,6.152C253.521,157.542,256.277,159.102,258.936,158.366z"/>
	<path d="M53.131,201.154c0.236,0,0.476-0.017,0.717-0.052l83.322-11.965c6.473-0.934,13.1-1.408,19.697-1.408
		c12.458,0,24.859,1.682,36.857,5c2.659,0.736,5.416-0.825,6.152-3.487c0.736-2.662-0.825-5.416-3.487-6.152
		c-12.866-3.558-26.163-5.361-39.522-5.361c-7.073,0-14.181,0.508-21.122,1.51l-83.318,11.964c-2.733,0.393-4.631,2.927-4.238,5.66
		C48.546,199.356,50.684,201.154,53.131,201.154z"/>
	<path d="M258.936,192.729c18.516-5.119,37.547-6.326,56.558-3.591l83.318,11.964c0.241,0.035,0.48,0.052,0.717,0.052
		c2.447,0,4.586-1.798,4.943-4.29c0.393-2.733-1.505-5.267-4.238-5.66l-83.317-11.964c-20.39-2.934-40.794-1.638-60.645,3.851
		c-2.662,0.736-4.223,3.49-3.487,6.152C253.521,191.905,256.277,193.465,258.936,192.729z"/>
	<path d="M53.131,235.517c0.236,0,0.476-0.017,0.717-0.052l83.322-11.965c6.473-0.935,13.1-1.408,19.697-1.408
		c12.458,0,24.858,1.682,36.857,5c2.659,0.735,5.416-0.825,6.152-3.487c0.736-2.662-0.825-5.416-3.487-6.152
		c-12.867-3.558-26.164-5.361-39.522-5.361c-7.074,0-14.181,0.508-21.122,1.51l-83.318,11.964c-2.733,0.393-4.631,2.927-4.238,5.66
		C48.546,233.719,50.684,235.517,53.131,235.517z"/>
	<path d="M258.936,227.092c18.515-5.119,37.542-6.327,56.558-3.591l83.318,11.964c0.241,0.035,0.48,0.052,0.717,0.052
		c2.447,0,4.586-1.798,4.943-4.29c0.393-2.733-1.505-5.267-4.238-5.66l-83.317-11.964c-20.387-2.934-40.794-1.638-60.645,3.851
		c-2.662,0.736-4.223,3.49-3.487,6.152C253.521,226.267,256.277,227.827,258.936,227.092z"/>
	<path d="M53.131,269.88c0.237,0,0.476-0.017,0.717-0.052l83.321-11.965c6.473-0.934,13.1-1.408,19.697-1.408
		c12.458,0,24.858,1.682,36.857,5c2.659,0.735,5.416-0.825,6.152-3.487c0.736-2.662-0.825-5.416-3.487-6.152
		c-12.867-3.558-26.164-5.361-39.522-5.361c-7.073,0-14.181,0.508-21.122,1.51L52.426,259.93c-2.733,0.393-4.631,2.927-4.238,5.66
		C48.546,268.082,50.684,269.88,53.131,269.88z"/>
	<path d="M258.936,261.455c18.516-5.119,37.547-6.326,56.558-3.591l83.318,11.964c0.241,0.035,0.48,0.052,0.717,0.052
		c2.447,0,4.586-1.798,4.943-4.29c0.393-2.733-1.505-5.267-4.238-5.66l-83.317-11.964c-20.39-2.934-40.794-1.638-60.645,3.851
		c-2.662,0.736-4.223,3.49-3.487,6.152C253.521,260.63,256.277,262.19,258.936,261.455z"/>
	<path d="M53.131,304.243c0.236,0,0.476-0.017,0.717-0.052l83.322-11.965c6.475-0.935,13.102-1.408,19.697-1.408
		c12.458,0,24.858,1.682,36.857,5c2.659,0.736,5.416-0.825,6.152-3.487c0.736-2.662-0.825-5.416-3.487-6.152
		c-12.867-3.558-26.164-5.362-39.522-5.362c-7.072,0-14.179,0.508-21.122,1.51l-83.318,11.964c-2.733,0.393-4.631,2.927-4.238,5.66
		C48.546,302.445,50.684,304.243,53.131,304.243z"/>
	<path d="M258.937,295.818c18.513-5.119,37.541-6.327,56.557-3.591l83.318,11.964c0.241,0.035,0.48,0.052,0.717,0.052
		c2.447,0,4.586-1.798,4.943-4.29c0.393-2.733-1.505-5.267-4.238-5.66l-83.317-11.964c-20.387-2.934-40.793-1.639-60.646,3.851
		c-2.661,0.736-4.222,3.49-3.486,6.152C253.521,294.993,256.274,296.553,258.937,295.818z"/>
	<path d="M156.866,325.181c12.458,0,24.858,1.682,36.857,5c2.659,0.736,5.416-0.825,6.152-3.487
		c0.736-2.662-0.825-5.416-3.487-6.152c-12.867-3.558-26.164-5.361-39.522-5.361c-7.074,0-14.181,0.508-21.122,1.51l-83.318,11.964
		c-2.733,0.393-4.631,2.927-4.238,5.66c0.358,2.492,2.496,4.29,4.943,4.29c0.236,0,0.476-0.017,0.717-0.052l83.322-11.965
		C143.643,325.655,150.269,325.181,156.866,325.181z"/>
	<path d="M400.233,328.656l-83.317-11.964c-20.387-2.934-40.794-1.639-60.645,3.851c-2.662,0.736-4.223,3.49-3.487,6.152
		c0.736,2.662,3.493,4.222,6.151,3.487c18.515-5.119,37.542-6.326,56.558-3.591l83.318,11.964c0.241,0.035,0.48,0.052,0.717,0.052
		c2.447,0,4.586-1.798,4.943-4.29C404.864,331.582,402.967,329.048,400.233,328.656z"/>
	<path d="M447.66,117.57h-11.754V93.588c0-2.487-1.827-4.596-4.289-4.949L316.916,72.162c-6.993-1.005-14.043-1.491-21.086-1.482
		V32.087c0-1.881-1.056-3.602-2.731-4.456c-1.676-0.854-3.689-0.694-5.209,0.412l-13.56,9.861l-13.56-9.861
		c-1.519-1.106-3.533-1.265-5.209-0.412c-1.676,0.853-2.731,2.575-2.731,4.456v44.96c-9.144,2.753-18.032,6.378-26.5,10.856
		c-27.606-14.596-59.66-20.183-90.586-15.741L21.043,88.639c-2.461,0.354-4.289,2.462-4.289,4.949v23.982H5c-2.761,0-5,2.239-5,5
		v298.003c0,1.389,0.578,2.716,1.596,3.662c0.928,0.863,2.146,1.338,3.404,1.338c0.122,0,0.243-0.004,0.365-0.013l200.479-14.653
		h40.973l200.48,14.653c0.122,0.009,0.243,0.013,0.364,0.013c1.259,0,2.477-0.475,3.404-1.338c1.018-0.946,1.596-2.273,1.596-3.662
		V122.57C452.66,119.808,450.422,117.57,447.66,117.57z M315.494,82.06l110.412,15.86v275.228l-108.99-15.656
		c-29.076-4.177-59.15,0.514-85.586,13.222V96.573C257.003,83.087,286.769,77.934,315.494,82.06z M40.86,381.225l96.306-13.834
		c28.724-4.125,58.49,1.026,84.164,14.513v5.593c-15.627-7.113-33.281-10.597-53.71-10.597c-9.91,0-20.334,0.805-31.968,2.476
		L40.86,394.904V381.225z M210.66,393.91c4.606,1.704,9.02,3.714,13.249,6.055c1.507,0.833,3.334,0.833,4.842,0
		c4.236-2.344,8.644-4.368,13.249-6.077v7.019h-31.34V393.91z M231.33,387.486v-5.582c25.675-13.487,55.443-18.639,84.164-14.513
		l96.306,13.834v13.68l-94.88-15.544C281.942,374.344,254.479,376.922,231.33,387.486z M262.83,41.906l8.56,6.225
		c1.752,1.275,4.129,1.275,5.881,0l8.56-6.225V71.03c-7.741,0.531-15.436,1.663-23,3.382V41.906z M26.754,97.921l110.412-15.86
		c28.724-4.126,58.49,1.026,84.164,14.513v274.152c-20.139-9.681-42.382-14.72-64.696-14.72c-6.977,0-13.963,0.492-20.89,1.487
		l-108.99,15.656V97.921z M10,415.194V127.57h6.754v251.348c0,1.45,0.629,2.829,1.726,3.779c1.095,0.949,2.551,1.376,3.985,1.171
		l8.395-1.206v18.129c0,1.467,0.645,2.861,1.763,3.811c1.118,0.95,2.596,1.361,4.045,1.124l100.502-16.465
		c11.06-1.588,21.02-2.359,30.449-2.359c12.029,0,22.98,1.288,33.04,3.886v10.473L10,415.194z M442.66,415.194L252,401.259v-10.496
		c17.854-4.623,38.567-5.08,63.401-1.519l100.59,16.48c0.27,0.044,0.54,0.066,0.809,0.066c1.177,0,2.327-0.416,3.237-1.189
		c1.118-0.95,1.763-2.343,1.763-3.811v-18.129l8.396,1.206c0.237,0.034,0.475,0.051,0.711,0.051c1.195,0,2.359-0.429,3.274-1.221
		c1.096-0.95,1.726-2.328,1.726-3.779V127.57h6.754V415.194z"/>
</g>
<g>
</g>
<g>
</g>
<g>
</g>
<g>
</g>
<g>
</g>
<g>
</g>
<g>
</g>
<g>
</g>
<g>
</g>
<g>
</g>
<g>
</g>
<g>
</g>
<g>
</g>
<g>
</g>
<g>
</g>
</svg>
